<?xml version="1.0" encoding="UTF-8"?>
<svg id="Layer_2" data-name="Layer 2" xmlns="http://www.w3.org/2000/svg" viewBox="0 0 82 82">
  <defs>
    <style>
      .cls-1 {
        stroke: #000;
        stroke-miterlimit: 10;
      }

      .cls-1, .cls-2 {
        fill: #03a9f4;
      }
    </style>
  </defs>
  <g id="Background">
    <g>
      <path class="cls-2" d="M77.45,22.22c-.48-.94-1-1.86-1.56-2.75-.23-.39-.48-.78-.74-1.16-.69-1.04-1.42-2.05-2.21-3.01C65.65,6.25,54.6,.36,42.16,0c-.39,0-.77,0-1.16,0-.66,0-1.31,.02-1.96,.04C27.02,.61,16.36,6.35,9.23,15.08c-.77,.94-1.5,1.92-2.19,2.93-.89,1.33-1.72,2.7-2.45,4.13-.58,1.11-1.1,2.24-1.58,3.4-1.28,3.16-2.19,6.52-2.65,10.02-.24,1.78-.36,3.59-.36,5.44s.12,3.66,.36,5.44c.65,4.89,2.16,9.51,4.38,13.69,.48,.92,1,1.82,1.55,2.7,2.25,3.58,5.05,6.78,8.27,9.5,3.69,3.12,7.94,5.6,12.58,7.26,2.4,.87,4.91,1.52,7.5,1.92,1.21,.19,2.44,.32,3.69,.4,.88,.06,1.77,.09,2.67,.09h.51c1.11-.02,2.21-.07,3.3-.18,3.93-.36,7.7-1.27,11.22-2.66h.03c3.75-1.5,7.24-3.52,10.35-5.99,3.94-3.11,7.3-6.94,9.87-11.28,.57-.95,1.09-1.92,1.58-2.92,2.65-5.42,4.14-11.52,4.14-17.97,0-6.77-1.64-13.15-4.55-18.78Zm-2.63,38.02c-.19,.33-.38,.66-.57,.98-.59,.97-1.22,1.91-1.89,2.82-1.12,1.52-2.34,2.95-3.66,4.29-.53,.54-1.07,1.06-1.62,1.56-5.71,5.15-12.95,8.64-20.96,9.69-.22,.03-.43,.06-.65,.08-.89,.1-1.79,.17-2.7,.2-.21,.02-.42,.02-.63,.03-.37,.01-.75,.02-1.13,.02-1.27,0-2.53-.06-3.77-.18-1.27-.12-2.53-.31-3.77-.55-7.65-1.5-14.49-5.24-19.83-10.51-.93-.92-1.81-1.88-2.64-2.89-.2-.25-.41-.5-.61-.76-.81-1.02-1.57-2.09-2.27-3.2-.56-.87-1.08-1.77-1.56-2.69-1.79-3.38-3.09-7.06-3.81-10.95-.07-.38-.14-.77-.2-1.17-.19-1.17-.32-2.37-.39-3.58-.05-.8-.08-1.61-.08-2.43,0-4.65,.81-9.1,2.31-13.23,.43-1.21,.92-2.39,1.48-3.54,1.01-2.11,2.2-4.13,3.57-6.01,.73-1.01,1.5-1.98,2.32-2.91,.42-.48,.86-.95,1.3-1.4,.22-.23,.44-.46,.67-.67,2.49-2.45,5.3-4.56,8.37-6.27,.55-.31,1.12-.61,1.69-.89,4.6-2.27,9.72-3.65,15.13-3.94,.69-.04,1.39-.06,2.09-.06,.21,0,.42,0,.62,.01,.19,0,.37,0,.55,.01,.16,0,.32,0,.48,.01,9.99,.42,19,4.6,25.65,11.17,.24,.23,.47,.47,.7,.7,.45,.48,.9,.96,1.33,1.46,.01,0,.02,.03,.03,.04h.01c.82,.95,1.6,1.93,2.33,2.96,.01,0,.02,.03,.03,.04,.54,.76,1.05,1.53,1.53,2.34h0c.07,.13,.15,.25,.21,.37,.48,.78,.92,1.58,1.33,2.41,.06,.13,.13,.25,.19,.38,.58,1.19,1.1,2.42,1.56,3.67,.38,1.04,.72,2.1,1.01,3.18,.87,3.25,1.34,6.65,1.34,10.17,0,5.62-1.19,10.97-3.35,15.8-.07,.15-.14,.31-.21,.46-.39,.87-.82,1.71-1.29,2.54h0c-.08,.16-.16,.3-.24,.44Z"/>
      <path d="M78.57,30.83c-.29-1.08-.63-2.14-1.01-3.18-.45-1.25-.97-2.48-1.56-3.67-.05-.13-.12-.25-.18-.38-.41-.83-.85-1.63-1.33-2.41-.06-.12-.14-.24-.21-.36h0c-.48-.82-.99-1.59-1.53-2.35h-.01s0-.03-.02-.04c-.73-1.03-1.51-2.01-2.34-2.96-.01-.01-.02-.03-.03-.04-.44-.5-.88-.99-1.34-1.46-.23-.23-.46-.47-.7-.7-6.65-6.57-15.66-10.75-25.65-11.17-.16-.01-.32-.01-.48-.01-.18-.01-.36-.01-.55-.01-.2-.01-.41-.01-.62-.01-.7,0-1.4,.02-2.09,.06-5.41,.29-10.53,1.67-15.13,3.94-.57,.29-1.13,.58-1.69,.89-3.07,1.71-5.88,3.82-8.37,6.27-.23,.22-.45,.45-.67,.67-.44,.46-.87,.92-1.29,1.4-.82,.93-1.59,1.9-2.32,2.91-1.37,1.88-2.56,3.9-3.57,6.01-.56,1.15-1.05,2.33-1.48,3.54-1.5,4.13-2.31,8.58-2.31,13.23,0,.82,.02,1.63,.07,2.43,.08,1.21,.21,2.41,.39,3.58,.06,.4,.13,.79,.2,1.17,.73,3.89,2.03,7.57,3.82,10.95,.48,.92,1,1.82,1.56,2.69,.7,1.11,1.46,2.18,2.26,3.2,.2,.26,.41,.51,.61,.76,.84,1.01,1.72,1.97,2.64,2.89,5.34,5.27,12.18,9.01,19.83,10.51,1.24,.24,2.5,.43,3.77,.55,1.24,.12,2.5,.18,3.77,.18,.38,0,.76-.01,1.13-.02,.21-.01,.42-.01,.63-.03,.91-.03,1.81-.1,2.7-.2,.22-.02,.43-.05,.65-.08,8.01-1.05,15.25-4.54,20.96-9.69,.55-.5,1.09-1.02,1.62-1.56,1.32-1.33,2.55-2.77,3.66-4.29,.67-.91,1.3-1.85,1.89-2.82,.2-.32,.39-.65,.58-.98,.08-.14,.16-.28,.23-.43,.48-.83,.91-1.68,1.3-2.55,.07-.15,.14-.31,.21-.46,2.16-4.83,3.35-10.18,3.35-15.8,0-3.52-.47-6.92-1.35-10.17Zm-30.55,3.03h7.55v13.72h-7.55v-13.72Z"/>
      <path class="cls-1" d="M78.57,30.83c-.29-1.08-.63-2.14-1.01-3.18-.45-1.25-.97-2.48-1.56-3.67-.05-.13-.12-.25-.18-.38-.41-.83-.85-1.63-1.33-2.41-.06-.12-.14-.24-.21-.36h0c-.48-.82-.99-1.59-1.53-2.35h-.01s0-.03-.02-.04c-.73-1.03-1.51-2.01-2.34-2.96-.01-.01-.02-.03-.03-.04-.44-.5-.88-.99-1.34-1.46-.23-.23-.46-.47-.7-.7-6.65-6.57-15.66-10.75-25.65-11.17-.16-.01-.32-.01-.48-.01-.18-.01-.36-.01-.55-.01-.2-.01-.41-.01-.62-.01-.7,0-1.4,.02-2.09,.06-5.41,.29-10.53,1.67-15.13,3.94-.57,.29-1.13,.58-1.69,.89-3.07,1.71-5.88,3.82-8.37,6.27-.23,.22-.45,.45-.67,.67-.44,.46-.87,.92-1.29,1.4-.82,.93-1.59,1.9-2.32,2.91-1.37,1.88-2.56,3.9-3.57,6.01-.56,1.15-1.05,2.33-1.48,3.54-1.5,4.13-2.31,8.58-2.31,13.23,0,.82,.02,1.63,.07,2.43,.08,1.21,.21,2.41,.39,3.58,.06,.4,.13,.79,.2,1.17,.73,3.89,2.03,7.57,3.82,10.95,.48,.92,1,1.82,1.56,2.69,.7,1.11,1.46,2.18,2.26,3.2,.2,.26,.41,.51,.61,.76,.84,1.01,1.72,1.97,2.64,2.89,5.34,5.27,12.18,9.01,19.83,10.51,1.24,.24,2.5,.43,3.77,.55,1.24,.12,2.5,.18,3.77,.18,.38,0,.76-.01,1.13-.02,.21-.01,.42-.01,.63-.03,.91-.03,1.81-.1,2.7-.2,.22-.02,.43-.05,.65-.08,8.01-1.05,15.25-4.54,20.96-9.69,.55-.5,1.09-1.02,1.62-1.56,1.32-1.33,2.55-2.77,3.66-4.29,.67-.91,1.3-1.85,1.89-2.82,.2-.32,.39-.65,.58-.98,.08-.14,.16-.28,.23-.43,.48-.83,.91-1.68,1.3-2.55,.07-.15,.14-.31,.21-.46,2.16-4.83,3.35-10.18,3.35-15.8,0-3.52-.47-6.92-1.35-10.17Zm-30.55,3.03h7.55v13.72h-7.55v-13.72Z"/>
      <g>
        <path d="M31.91,22.06V59.93h-11.97v-24.81h-5.57v-13.06H31.91Z"/>
        <path d="M67.16,27.34l-6.4-5.28h-18.31l-3.08,2.96-1.13,1.09-2.73,2.62v23.22l6.5,7.87h18.31l7.32-7.87V27.74l-.48-.4Zm-19.14,20.24v-13.72h7.55v13.72h-7.55Z"/>
      </g>
      <rect class="cls-1" x="48.02" y="33.86" width="7.55" height="13.72"/>
    </g>
  </g>
</svg>